poster: 
http://img18.imageshack.us/img18/7741/bindlestiffsposter.jpg

IMDB:  
http://www.imdb.com/title/tt2091243/

PLOT INFO:
Three high school virgins, suspended from school on a bogus graffiti charge, flee to the inner city in an attempt to live out the plot of The Catcher in the Rye...


MEDIAINFO:
General
Complete name : Kevin.Smiths.Bindlestiffs.2012.HDRiP.AC3-2.0.XviD-AXED.avi
Format : AVI
Format/Info : Audio Video Interleave
File size : 1.37 GiB
Duration : 1h 19mn
Overall bit rate : 2 470 Kbps

Video
ID : 0
Format : MPEG-4 Visual
Format profile : Advanced Simple@L5
Format settings, BVOP : 2
Format settings, QPel : No
Format settings, GMC : No warppoints
Format settings, Matrix : Default (H.263)
Muxing mode : Packed bitstream
Codec ID : XVID
Codec ID/Hint : XviD
Duration : 1h 19mn
Bit rate : 2 271 Kbps
Width : 720 pixels
Height : 400 pixels
Display aspect ratio : 16:9
Frame rate : 23.976 fps
Color space : YUV
Chroma subsampling : 4:2:0
Bit depth : 8 bits
Scan type : Progressive
Compression mode : Lossy
Bits/(Pixel*Frame) : 0.329
Stream size : 1.26 GiB (92%)
Writing library : XviD 1.1.2 (UTC 2006-11-01)

Audio
ID : 1
Format : AC-3
Format/Info : Audio Coding 3
Mode extension : CM (complete main)
Codec ID : 2000
Duration : 1h 19mn
Bit rate mode : Constant
Bit rate : 192 Kbps
Channel(s) : 2 channels
Channel positions : Front: L R
Sampling rate : 48.0 KHz
Bit depth : 16 bits
Compression mode : Lossy
Stream size : 109 MiB (8%)
Alignment : Aligned on interleaves
Interleave, duration : 64 ms (1.53 video frames)
Interleave, preload duration : 192 ms
Title : bindlestiffs




SOURCE: 
720p wmv Digital VOD Rental


NOTES: 
The new film from Kevin Smith's new distribution label Smodcast Pictures Presents. The film hits DVD in August, but it is not being released on Bluray, so enjoy this nice encode from our HD Digital VOD source!

AXED! We do this better!

SCREENS: 
http://img151.imageshack.us/img151/6900/screencap00001.png 
http://img856.imageshack.us/img856/8877/screencap00010.png 
http://img546.imageshack.us/img546/1396/screencap00018.png 
http://img823.imageshack.us/img823/1320/screencap00019.png 
http://img546.imageshack.us/img546/2598/screencap00030.png
